<svg width="694" height="694" viewBox="0 0 694 694" fill="none" xmlns="http://www.w3.org/2000/svg">
<g clip-path="url(#clip0_10_1473)">
<rect x="-0.967987" y="-1.06116" width="77.2274" height="77.2274" stroke="#E49A2A"/>
<rect x="-0.967987" y="76.1661" width="77.2274" height="77.2274" stroke="#E49A2A"/>
<rect x="-0.967987" y="463.257" width="77.2274" height="77.2274" stroke="#E49A2A"/>
<rect x="-0.967987" y="540.484" width="77.2274" height="77.2274" stroke="#E49A2A"/>
<rect x="-0.967987" y="617.711" width="77.2274" height="77.2274" stroke="#E49A2A"/>
<rect x="-0.967987" y="153.394" width="77.2274" height="78.1808" stroke="#E49A2A"/>
<rect x="-0.967987" y="231.575" width="77.2274" height="77.2274" stroke="#E49A2A"/>
<rect x="-0.967987" y="308.802" width="77.2274" height="77.2274" stroke="#E49A2A"/>
<rect x="-0.967987" y="386.029" width="77.2274" height="77.2274" stroke="#E49A2A"/>
<rect x="76.2589" y="-1.06116" width="77.2274" height="77.2274" stroke="#E49A2A"/>
<rect x="76.2589" y="76.1661" width="77.2274" height="77.2274" stroke="#E49A2A"/>
<rect x="76.2589" y="463.257" width="77.2274" height="77.2274" stroke="#E49A2A"/>
<rect x="76.2589" y="540.484" width="77.2274" height="77.2274" stroke="#E49A2A"/>
<rect x="76.2589" y="617.711" width="77.2274" height="77.2274" stroke="#E49A2A"/>
<rect x="76.2589" y="153.394" width="77.2274" height="78.1808" stroke="#E49A2A"/>
<rect x="76.2589" y="231.575" width="77.2274" height="77.2274" stroke="#E49A2A"/>
<rect x="76.2589" y="308.802" width="77.2274" height="77.2274" stroke="#E49A2A"/>
<rect x="76.2589" y="386.029" width="77.2274" height="77.2274" stroke="#E49A2A"/>
<rect x="153.487" y="-1.06116" width="77.2274" height="77.2274" stroke="#E49A2A"/>
<rect x="153.487" y="76.1661" width="77.2274" height="77.2274" stroke="#E49A2A"/>
<rect x="153.487" y="463.257" width="77.2274" height="77.2274" stroke="#E49A2A"/>
<rect x="153.487" y="540.484" width="77.2274" height="77.2274" stroke="#E49A2A"/>
<rect x="153.487" y="617.711" width="77.2274" height="77.2274" stroke="#E49A2A"/>
<rect x="153.487" y="153.394" width="77.2274" height="78.1808" stroke="#E49A2A"/>
<rect x="153.487" y="231.575" width="77.2274" height="77.2274" stroke="#E49A2A"/>
<rect x="153.487" y="308.802" width="77.2274" height="77.2274" stroke="#E49A2A"/>
<rect x="153.487" y="386.029" width="77.2274" height="77.2274" stroke="#E49A2A"/>
<rect x="230.714" y="-1.06116" width="77.2274" height="77.2274" stroke="#E49A2A"/>
<rect x="230.714" y="76.1661" width="77.2274" height="77.2274" stroke="#E49A2A"/>
<rect x="230.714" y="463.257" width="77.2274" height="77.2274" stroke="#E49A2A"/>
<rect x="230.714" y="540.484" width="77.2274" height="77.2274" stroke="#E49A2A"/>
<rect x="230.714" y="617.711" width="77.2274" height="77.2274" stroke="#E49A2A"/>
<rect x="230.714" y="153.394" width="77.2274" height="78.1808" stroke="#E49A2A"/>
<rect x="230.714" y="231.575" width="77.2274" height="77.2274" stroke="#E49A2A"/>
<rect x="230.714" y="308.802" width="77.2274" height="77.2274" stroke="#E49A2A"/>
<rect x="230.714" y="386.029" width="77.2274" height="77.2274" stroke="#E49A2A"/>
<rect x="307.942" y="-1.06116" width="77.2274" height="77.2274" stroke="#E49A2A"/>
<rect x="307.942" y="76.1661" width="77.2274" height="77.2274" stroke="#E49A2A"/>
<rect x="307.942" y="463.257" width="77.2274" height="77.2274" stroke="#E49A2A"/>
<rect x="307.942" y="540.484" width="77.2274" height="77.2274" stroke="#E49A2A"/>
<rect x="307.942" y="617.711" width="77.2274" height="77.2274" stroke="#E49A2A"/>
<rect x="308.032" y="153.939" width="77.2274" height="78.1808" stroke="#E49A2A"/>
<rect x="307.942" y="231.575" width="77.2274" height="77.2274" stroke="#E49A2A"/>
<rect x="307.942" y="308.802" width="77.2274" height="77.2274" stroke="#E49A2A"/>
<rect x="307.942" y="386.029" width="77.2274" height="77.2274" stroke="#E49A2A"/>
<rect x="385.169" y="-1.06116" width="78.1808" height="77.2274" stroke="#E49A2A"/>
<rect x="385.169" y="76.1661" width="78.1808" height="77.2274" stroke="#E49A2A"/>
<rect x="385.169" y="463.257" width="78.1808" height="77.2274" stroke="#E49A2A"/>
<rect x="385.169" y="540.484" width="78.1808" height="77.2274" stroke="#E49A2A"/>
<rect x="385.169" y="617.711" width="78.1808" height="77.2274" stroke="#E49A2A"/>
<rect x="385.169" y="153.394" width="78.1808" height="78.1808" stroke="#E49A2A"/>
<rect x="385.169" y="231.575" width="78.1808" height="77.2274" stroke="#E49A2A"/>
<rect x="385.169" y="308.802" width="78.1808" height="77.2274" stroke="#E49A2A"/>
<rect x="385.169" y="386.029" width="78.1808" height="77.2274" stroke="#E49A2A"/>
<rect x="463.35" y="-1.06116" width="77.2274" height="77.2274" stroke="#E49A2A"/>
<rect x="463.35" y="76.1661" width="77.2274" height="77.2274" stroke="#E49A2A"/>
<rect x="463.35" y="463.257" width="77.2274" height="77.2274" stroke="#E49A2A"/>
<rect x="463.35" y="540.484" width="77.2274" height="77.2274" stroke="#E49A2A"/>
<rect x="463.35" y="617.711" width="77.2274" height="77.2274" stroke="#E49A2A"/>
<rect x="463.35" y="153.394" width="77.2274" height="78.1808" stroke="#E49A2A"/>
<rect x="463.35" y="231.575" width="77.2274" height="77.2274" stroke="#E49A2A"/>
<rect x="463.35" y="308.802" width="77.2274" height="77.2274" stroke="#E49A2A"/>
<rect x="463.35" y="386.029" width="77.2274" height="77.2274" stroke="#E49A2A"/>
<rect x="540.578" y="-1.06116" width="77.2274" height="77.2274" stroke="#E49A2A"/>
<rect x="540.578" y="76.1661" width="77.2274" height="77.2274" stroke="#E49A2A"/>
<rect x="540.578" y="463.257" width="77.2274" height="77.2274" stroke="#E49A2A"/>
<rect x="540.578" y="540.484" width="77.2274" height="77.2274" stroke="#E49A2A"/>
<rect x="540.578" y="617.711" width="77.2274" height="77.2274" stroke="#E49A2A"/>
<rect x="540.578" y="153.394" width="77.2274" height="78.1808" stroke="#E49A2A"/>
<rect x="540.578" y="231.575" width="77.2274" height="77.2274" stroke="#E49A2A"/>
<rect x="540.578" y="308.802" width="77.2274" height="77.2274" stroke="#E49A2A"/>
<rect x="540.578" y="386.029" width="77.2274" height="77.2274" stroke="#E49A2A"/>
<rect x="617.805" y="-1.06116" width="77.2274" height="77.2274" stroke="#E49A2A"/>
<rect x="617.805" y="76.1661" width="77.2274" height="77.2274" stroke="#E49A2A"/>
<rect x="617.805" y="463.257" width="77.2274" height="77.2274" stroke="#E49A2A"/>
<rect x="617.805" y="540.484" width="77.2274" height="77.2274" stroke="#E49A2A"/>
<rect x="617.805" y="617.711" width="77.2274" height="77.2274" stroke="#E49A2A"/>
<rect x="617.805" y="153.394" width="77.2274" height="78.1808" stroke="#E49A2A"/>
<rect x="617.805" y="231.575" width="77.2274" height="77.2274" stroke="#E49A2A"/>
<rect x="617.805" y="308.802" width="77.2274" height="77.2274" stroke="#E49A2A"/>
<rect x="617.805" y="386.029" width="77.2274" height="77.2274" stroke="#E49A2A"/>
</g>
<defs>
<clipPath id="clip0_10_1473">
<rect width="694" height="694" fill="white"/>
</clipPath>
</defs>
</svg>
