<?xml version="1.0" standalone="no"?>
<!DOCTYPE svg PUBLIC "-//W3C//DTD SVG 20010904//EN"
 "http://www.w3.org/TR/2001/REC-SVG-20010904/DTD/svg10.dtd">
<svg version="1.0" xmlns="http://www.w3.org/2000/svg"
 width="261.000000pt" height="261.000000pt" viewBox="0 0 261.000000 261.000000"
 preserveAspectRatio="xMidYMid meet">

<g transform="translate(0.000000,261.000000) scale(0.100000,-0.100000)"
fill="#000000" stroke="none">
<path d="M0 1305 l0 -1305 1305 0 1305 0 0 1305 0 1305 -1305 0 -1305 0 0
-1305z m2578 3 l-3 -1263 -1262 -3 -1263 -2 0 1265 0 1265 1265 0 1265 0 -2
-1262z"/>
<path d="M157 2463 c-4 -3 -7 -129 -7 -280 l0 -273 280 0 280 0 0 280 0 280
-273 0 c-151 0 -277 -3 -280 -7z m473 -273 l0 -200 -200 0 -200 0 0 193 c0
107 3 197 7 200 3 4 93 7 200 7 l193 0 0 -200z"/>
<path d="M317 2303 c-4 -3 -7 -57 -7 -120 l0 -113 120 0 120 0 0 120 0 120
-113 0 c-63 0 -117 -3 -120 -7z"/>
<path d="M877 2463 c-4 -3 -7 -39 -7 -80 l0 -73 -40 0 -40 0 0 -240 0 -240 40
0 40 0 0 -40 0 -40 40 0 40 0 0 -80 0 -80 -40 0 -40 0 0 40 0 40 -121 0 -120
0 3 38 c3 35 5 37 41 40 36 3 37 4 37 43 l0 39 -197 -2 -198 -3 -3 -37 -3 -38
80 0 81 0 0 -39 c0 -39 -1 -40 -37 -43 -36 -3 -38 -5 -41 -40 -3 -37 -4 -38
-43 -38 -39 0 -39 0 -39 40 l0 40 -40 0 -40 0 0 80 0 80 -40 0 -40 0 0 -80 0
-80 40 0 c40 0 40 0 40 -39 0 -39 -1 -40 -37 -43 l-38 -3 -3 -77 -3 -78 41 0
40 0 0 -159 0 -160 -37 -3 -38 -3 -3 -157 -3 -158 40 0 40 0 3 118 3 117 37 3
38 3 0 -40 0 -41 40 0 40 0 0 -40 0 -40 40 0 40 0 0 -40 0 -40 40 0 40 0 0 40
0 40 -40 0 -40 0 0 40 0 40 200 0 200 0 0 -39 c0 -39 -1 -40 -37 -43 l-38 -3
-3 -77 -3 -78 41 0 40 0 0 80 0 80 40 0 40 0 0 -40 c0 -40 0 -40 39 -40 39 0
40 1 43 38 3 35 5 37 41 40 l37 3 0 -120 0 -121 -40 0 -40 0 0 41 0 40 -37 -3
c-36 -3 -38 -5 -41 -40 l-3 -37 -77 -3 -77 -3 -3 -157 -3 -158 40 0 c39 0 40
1 43 37 l3 38 118 3 117 3 0 -40 c0 -39 -1 -40 -37 -43 -36 -3 -38 -5 -41 -40
l-3 -37 -117 -3 -117 -3 -3 -37 -3 -38 160 0 160 0 3 38 3 37 118 3 117 3 0
-41 c0 -40 0 -40 39 -40 39 0 40 1 43 38 3 35 5 37 40 40 35 3 37 5 40 40 3
35 5 37 41 40 l37 3 0 -40 0 -41 40 0 40 0 0 -40 0 -40 40 0 40 0 0 40 0 40
-41 0 -40 0 3 38 c3 35 5 37 41 40 l37 3 0 80 0 79 120 0 120 0 0 -40 0 -39
-77 -3 -78 -3 -3 -37 -3 -38 40 0 41 0 0 -40 0 -40 79 0 80 0 3 38 c3 35 5 37
41 40 36 3 37 4 37 43 0 39 0 39 -41 39 l-40 0 3 38 3 37 78 3 77 3 0 -81 0
-80 40 0 c40 0 40 0 40 -40 l0 -39 -117 -3 -118 -3 -3 -37 -3 -38 120 0 121 0
0 40 c0 40 0 40 40 40 l39 0 3 78 3 77 38 3 37 3 0 120 0 119 -81 0 -80 0 3
38 3 37 78 3 77 3 0 39 0 40 -41 0 -40 0 3 38 c3 35 5 37 41 40 36 3 37 4 37
43 l0 40 -77 -3 -78 -3 -3 -37 c-3 -37 -4 -38 -43 -38 l-40 0 3 78 3 77 118 3
117 3 0 79 0 80 -121 0 -120 0 3 38 c3 35 5 37 41 40 l37 3 0 120 0 119 40 0
40 0 0 40 0 40 -40 0 -40 0 0 40 0 40 80 0 80 0 0 40 0 40 -80 0 -80 0 0 40 0
40 -197 -2 -198 -3 -3 -37 -3 -38 -80 0 -79 0 0 80 0 80 40 0 40 0 0 120 0
120 -41 0 -40 0 3 38 c3 35 5 37 41 40 l37 3 0 120 0 120 -37 -3 -38 -3 -3
-77 -3 -77 -37 -3 -37 -3 -3 -77 -3 -78 -39 0 -40 0 0 41 0 40 -37 -3 c-36 -3
-38 -5 -41 -40 l-3 -38 -80 0 -80 0 3 38 c3 35 5 37 40 40 l37 3 3 77 3 77 38
3 c36 3 37 4 37 43 l0 39 -197 -2 -198 -3 -3 -37 -3 -38 -80 0 -79 0 0 40 c0
39 -1 40 -33 40 -19 0 -37 -3 -40 -7z m473 -112 c0 -39 -1 -40 -37 -43 -36 -3
-38 -5 -41 -40 -3 -37 -4 -38 -43 -38 l-39 0 0 73 c0 41 3 77 7 80 3 4 39 7
80 7 l73 0 0 -39z m-400 -81 c0 -40 0 -40 39 -40 39 0 40 1 43 38 3 35 5 37
41 40 l37 3 0 -120 0 -121 39 0 c39 0 40 1 43 38 3 35 5 37 41 40 l37 3 0 -40
0 -41 -40 0 -40 0 0 -40 0 -40 40 0 40 0 0 -120 0 -120 -160 0 -160 0 0 40 0
40 -40 0 -40 0 0 120 0 120 40 0 40 0 0 40 0 40 -40 0 -40 0 0 80 0 80 40 0
40 0 0 -40z m640 -160 l0 -40 -40 0 -40 0 0 -40 0 -40 40 0 40 0 0 -80 0 -80
40 0 40 0 0 -40 0 -40 -40 0 -40 0 0 40 0 40 -40 0 -40 0 0 80 0 80 -40 0 -40
0 0 -40 0 -40 -41 0 -40 0 3 38 c3 35 5 37 41 40 36 3 37 4 37 43 0 39 0 39
40 39 l40 0 0 40 0 40 40 0 40 0 0 -40z m160 -120 l0 -80 -40 0 -40 0 0 80 0
80 40 0 40 0 0 -80z m240 -280 l0 -40 79 0 80 0 3 38 3 37 78 3 77 3 0 -41 0
-40 -80 0 -80 0 0 -80 0 -80 39 0 c39 0 40 1 43 38 3 35 5 37 41 40 l37 3 0
-40 0 -41 -40 0 c-40 0 -40 0 -40 -40 l0 -39 -157 -3 -158 -3 -3 -37 -3 -38
40 0 41 0 0 -80 0 -80 39 0 c39 0 40 1 43 38 3 35 5 37 41 40 l37 3 0 -40 0
-41 40 0 40 0 0 -80 0 -80 -40 0 -40 0 0 80 0 80 -40 0 c-40 0 -40 0 -40 -39
0 -39 -1 -40 -37 -43 -36 -3 -38 -5 -41 -40 l-3 -38 40 0 41 0 0 -40 0 -40 40
0 40 0 0 -40 0 -40 40 0 40 0 0 -40 0 -40 -40 0 -40 0 0 40 0 40 -121 0 -120
0 3 38 c3 35 5 37 41 40 36 3 37 4 37 43 l0 40 -77 -3 -78 -3 -3 -77 -3 -78
-39 0 c-40 0 -40 0 -40 -39 0 -39 -1 -40 -37 -43 l-38 -3 -3 -77 -3 -78 41 0
40 0 0 -80 0 -79 -77 -3 -78 -3 -3 -38 c-3 -36 -4 -37 -43 -37 -39 0 -39 0
-39 -40 l0 -40 -41 0 -40 0 3 38 c3 35 5 37 41 40 l37 3 0 77 0 77 -80 3 -80
3 0 -121 0 -120 -80 0 -80 0 0 80 0 80 -120 0 -120 0 0 80 0 80 39 0 c40 0 40
0 43 -42 l3 -43 75 0 75 0 5 80 5 80 78 3 77 3 0 -41 c0 -40 0 -40 39 -40 39
0 40 1 43 38 3 35 5 37 41 40 36 3 37 4 37 43 0 39 0 39 -41 39 l-40 0 3 38
c3 35 5 37 41 40 36 3 37 4 37 43 0 39 0 39 -40 39 -38 0 -40 2 -40 30 0 28
-2 30 -40 30 l-40 0 0 -110 0 -110 -40 0 -40 0 0 40 0 40 -80 0 -80 0 0 40 0
40 -80 0 -80 0 0 40 0 40 -237 -2 -238 -3 -3 -37 c-3 -37 -4 -38 -43 -38 -39
0 -39 0 -39 40 l0 40 -40 0 -41 0 3 78 3 77 118 3 117 3 0 39 c0 40 0 40 -40
40 l-40 0 0 40 0 40 -41 0 -40 0 3 38 3 37 78 3 77 3 0 39 c0 40 0 40 40 40
l40 0 0 40 0 40 -80 0 -80 0 0 40 0 40 80 0 80 0 0 -40 0 -40 40 0 40 0 0 -40
c0 -40 0 -40 39 -40 39 0 40 1 43 38 3 35 5 37 41 40 l37 3 0 -40 0 -41 -40 0
-40 0 0 -40 0 -40 80 0 80 0 0 79 0 80 79 7 80 6 3 32 c3 28 7 31 40 34 35 3
37 2 40 -30 3 -30 6 -33 40 -36 35 -3 37 -2 40 30 3 30 6 33 40 36 35 3 37 2
40 -30 3 -30 6 -33 40 -36 35 -3 37 -2 40 30 l3 33 158 3 157 3 0 -41 c0 -40
0 -40 39 -40 39 0 40 1 43 38 3 35 5 37 41 40 36 3 37 4 37 43 0 39 0 39 40
39 l40 0 0 -40z m-1680 -160 l0 -40 40 0 40 0 0 -40 0 -40 -40 0 -40 0 0 40 0
40 -40 0 -40 0 0 40 0 40 40 0 40 0 0 -40z m1758 -882 l-3 -123 -25 1 c-14 1
-67 2 -117 3 l-93 1 0 113 c0 63 3 117 7 120 3 4 57 7 120 7 l114 0 -3 -122z
m162 2 l0 -40 41 0 40 0 -3 -42 -3 -43 -75 0 -75 0 -3 69 c-4 88 0 96 43 96
34 0 35 -1 35 -40z m-560 -323 l0 -43 -40 4 c-38 4 -40 6 -40 36 0 41 5 46 47
46 32 0 33 -1 33 -43z m400 3 l0 -40 -40 0 c-39 0 -40 1 -40 33 0 42 5 47 47
47 32 0 33 -1 33 -40z"/>
<path d="M950 1950 l0 -120 80 0 80 0 0 40 0 40 40 0 40 0 0 40 0 40 -40 0
-40 0 0 40 0 40 -80 0 -80 0 0 -120z m160 0 l0 -40 -40 0 c-39 0 -40 1 -40 33
0 42 5 47 47 47 32 0 33 -1 33 -40z"/>
<path d="M1910 1630 l0 -40 40 0 40 0 0 40 0 40 -40 0 -40 0 0 -40z"/>
<path d="M630 1470 l0 -40 40 0 c40 0 40 0 40 -39 0 -39 -1 -40 -37 -43 -36
-3 -38 -5 -41 -40 l-3 -38 40 0 41 0 0 -40 0 -40 -80 0 -80 0 0 -40 0 -40 80
0 80 0 0 40 0 40 40 0 40 0 0 -40 0 -40 40 0 40 0 0 120 0 120 -40 0 -40 0 0
40 0 40 -40 0 -40 0 0 40 0 40 -40 0 -40 0 0 -40z m160 -160 l0 -40 -40 0 -40
0 0 40 0 40 40 0 40 0 0 -40z"/>
<path d="M1610 1470 c0 -38 2 -40 30 -40 28 0 30 -2 30 -40 0 -38 -2 -40 -30
-40 -28 0 -30 -2 -30 -40 0 -38 2 -40 30 -40 28 0 30 2 30 40 0 40 0 40 39 40
39 0 40 1 43 38 3 35 5 37 41 40 36 3 37 4 37 43 l0 39 -110 0 -110 0 0 -40z"/>
<path d="M1837 1343 c-4 -3 -7 -39 -7 -79 l0 -73 -37 -3 -38 -3 -3 -77 -3 -78
40 0 40 0 3 78 3 77 38 3 37 3 0 80 0 79 -33 0 c-19 0 -37 -3 -40 -7z"/>
<path d="M957 1264 c-4 -4 -7 -40 -7 -81 l0 -73 35 0 36 0 -3 78 c-3 74 -4 77
-28 80 -14 2 -29 0 -33 -4z"/>
<path d="M1610 1150 c0 -38 2 -40 30 -40 28 0 30 2 30 40 0 38 -2 40 -30 40
-28 0 -30 -2 -30 -40z"/>
<path d="M397 1103 c-4 -3 -7 -21 -7 -40 0 -32 1 -33 40 -33 l40 0 0 40 c0 39
-1 40 -33 40 -19 0 -37 -3 -40 -7z"/>
<path d="M1603 1015 c-8 -8 -13 -41 -13 -80 l0 -65 -40 0 -40 0 0 -40 0 -40
40 0 40 0 0 40 0 40 80 0 80 0 0 40 0 40 -40 0 -40 0 0 40 c0 37 -2 40 -27 40
-16 -1 -34 -7 -40 -15z"/>
<path d="M1110 980 l0 -30 80 0 80 0 0 30 0 30 -80 0 -80 0 0 -30z"/>
<path d="M1510 670 l0 -40 40 0 40 0 0 40 0 40 -40 0 -40 0 0 -40z"/>
<path d="M1274 616 c-3 -8 -4 -27 -2 -42 3 -25 7 -28 38 -29 34 0 35 1 38 43
l3 42 -36 0 c-21 0 -38 -6 -41 -14z"/>
<path d="M1917 703 c-4 -3 -7 -21 -7 -40 0 -32 1 -33 40 -33 l40 0 0 40 c0 39
-1 40 -33 40 -19 0 -37 -3 -40 -7z"/>
<path d="M1917 2463 c-4 -3 -7 -129 -7 -280 l0 -273 280 0 280 0 0 280 0 280
-273 0 c-151 0 -277 -3 -280 -7z m473 -273 l0 -200 -200 0 -200 0 0 193 c0
107 3 197 7 200 3 4 93 7 200 7 l193 0 0 -200z"/>
<path d="M2077 2303 c-4 -3 -7 -57 -7 -120 l0 -113 120 0 120 0 0 120 0 120
-113 0 c-63 0 -117 -3 -120 -7z"/>
<path d="M2397 1423 c-4 -3 -7 -21 -7 -40 0 -32 1 -33 40 -33 l40 0 0 40 c0
39 -1 40 -33 40 -19 0 -37 -3 -40 -7z"/>
<path d="M637 863 c-4 -3 -7 -21 -7 -40 0 -32 1 -33 40 -33 l40 0 0 40 c0 39
-1 40 -33 40 -19 0 -37 -3 -40 -7z"/>
<path d="M157 703 c-4 -3 -7 -129 -7 -280 l0 -273 280 0 280 0 0 280 0 280
-273 0 c-151 0 -277 -3 -280 -7z m473 -273 l0 -200 -200 0 -200 0 0 193 c0
107 3 197 7 200 3 4 93 7 200 7 l193 0 0 -200z"/>
<path d="M317 544 c-4 -4 -7 -58 -7 -121 l0 -113 120 0 120 0 0 118 0 118
-113 2 c-62 2 -116 0 -120 -4z"/>
</g>
</svg>
